Coordinates
version=1
nRows=10
nColumns=40
inDegrees=yes

Units are S.I. units (second, meters, Newtons, ...)
Angles are in degrees.

endheader
time	pelvis_tilt	pelvis_list	pelvis_rotation	pelvis_tx	pelvis_ty	pelvis_tz	hip_flexion_r	hip_adduction_r	hip_rotation_r	knee_angle_r	knee_angle_r_beta	ankle_angle_r	subtalar_angle_r	mtp_angle_r	hip_flexion_l	hip_adduction_l	hip_rotation_l	knee_angle_l	knee_angle_l_beta	ankle_angle_l	subtalar_angle_l	mtp_angle_l	lumbar_extension	lumbar_bending	lumbar_rotation	arm_flex_r	arm_add_r	arm_rot_r	elbow_flex_r	pro_sup_r	wrist_flex_r	wrist_dev_r	arm_flex_l	arm_add_l	arm_rot_l	elbow_flex_l	pro_sup_l	wrist_flex_l	wrist_dev_l
      7.56500000	     -4.38892140	     -4.30106937	      8.10467195	      0.83186665	      0.92145883	      0.46881554	      0.42578694	      3.69316621	    -17.93850293	     11.15179200	     11.15179200	     17.14544692	     -2.93979152	     -3.10106129	     30.20156473	     -3.02746946	     -2.53401160	     17.34298307	     17.34298307	      3.12160964	     -7.69089804	      2.88000874	     -8.14570560	      4.06752513	      3.49103344	     37.24512868	    -15.28062804	     -8.54759888	    101.63245360	     44.35220497	      0.00000000	      0.00000000	     -6.82701847	     -8.81712860	      3.04937807	     25.12832660	     46.08213517	      0.00000000	      0.00000000
      7.57707143	     -4.39249956	     -4.26349588	      7.84146193	      0.83359208	      0.92011703	      0.46750185	     -0.27064679	      3.63363974	    -17.70445111	     11.05961090	     11.05961090	     17.60364891	     -2.72502580	     -3.07752613	     29.98485924	     -3.06029784	     -2.58805799	     18.38855022	     18.38855022	      2.62428063	     -8.56393928	      2.85991490	     -7.87243210	      3.91933084	      3.64909229	     36.90652998	    -14.87791364	     -8.31581195	    101.74732560	     44.34632527	      0.00000000	      0.00000000	     -6.59557874	     -8.82894262	      3.00158435	     25.30462504	     46.09064276	      0.00000000	      0.00000000
      7.58914286	     -4.42759075	     -4.25926452	      7.57565244	      0.83532557	      0.91877881	      0.46609301	     -0.91938731	      3.57989940	    -17.50802991	     10.99017459	     10.99017459	     18.07040734	     -2.41148926	     -2.87415185	     29.81160714	     -3.05128268	     -2.36473958	     19.39435880	     19.39435880	      2.13391030	     -9.78864508	      2.83450075	     -7.57808550	      3.81937133	      3.79791293	     36.43463614	    -14.54351202	     -8.03522914	    101.93311990	     44.33861247	      0.00000000	      0.00000000	     -6.35974939	     -8.82870037	      2.90875922	     25.62398984	     46.10445316	      0.00000000	      0.00000000
      7.60121429	     -4.48752209	     -4.11282046	      7.21563823	      0.83704932	      0.91770368	      0.46471118	     -1.48357976	      3.33495513	    -17.17405332	     11.04644414	     11.04644414	     18.46088327	     -2.24786421	     -2.87219467	     29.49762733	     -2.97972053	     -2.51720286	     20.10291503	     20.10291503	      1.85814451	    -10.42346759	      2.84386827	     -7.31191834	      3.55127488	      3.97576565	     35.89448167	    -14.10711052	     -7.74559405	    101.88999057	     44.33058435	      0.00000000	      0.00000000	     -5.96694973	     -8.79089842	      2.88356491	     25.86192311	     46.11373952	      0.00000000	      0.00000000
      7.61328571	     -4.50054408	     -3.99054757	      6.89235393	      0.83869277	      0.91686173	      0.46307927	     -2.01270401	      3.07339059	    -16.89987651	     11.24216037	     11.24216037	     18.75277749	     -2.12439554	     -2.82657880	     29.21228112	     -2.86998001	     -2.50632596	     20.87941412	     20.87941412	      1.85262153	    -11.19175070	      2.74968254	     -7.10580227	      3.35518752	      4.08289381	     35.18295786	    -13.72748090	     -7.44386394	    101.77629429	     44.32361175	      0.00000000	      0.00000000	     -5.53954673	     -8.78865116	      2.84676887	     26.12973516	     46.12543266	      0.00000000	      0.00000000
      7.62535714	     -4.68984535	     -3.97902843	      6.62216444	      0.83985231	      0.91591837	      0.46133687	     -1.93055232	      2.76737785	    -16.83377058	     12.20160380	     12.20160380	     19.30449166	     -2.04175477	     -2.15476187	     29.28416992	     -2.66166266	     -1.74137452	     21.77473642	     21.77473642	      1.62460303	    -13.13046747	      2.73423306	     -6.76599984	      3.20832396	      4.38607835	     34.27457789	    -13.92410518	     -6.92864798	    101.62425084	     44.32193329	      0.00000000	      0.00000000	     -5.20132871	     -8.78491234	      2.59424818	     26.87113636	     46.16123341	      0.00000000	      0.00000000
      7.63742857	     -4.73105188	     -3.78324456	      6.30619166	      0.84099578	      0.91573302	      0.45954014	     -1.93587438	      2.25011437	    -16.59228478	     13.30248456	     13.30248456	     19.71626526	     -2.15356868	     -1.61729376	     28.95395617	     -2.41963097	     -1.64348410	     22.27122503	     22.27122503	      1.77326668	    -13.98900876	      2.58233359	     -6.66364517	      2.89921615	      4.51936594	     33.34335123	    -13.78503162	     -6.38500412	    101.24404432	     44.32574305	      0.00000000	      0.00000000	     -4.71349467	     -8.78222657	      2.38103122	     27.42227847	     46.19311443	      0.00000000	      0.00000000
      7.64950000	     -4.77055150	     -3.65625584	      6.01784869	      0.84187325	      0.91586728	      0.45767803	     -1.73352490	      1.75777481	    -16.32622686	     14.72116866	     14.72116866	     19.90896891	     -2.51332758	     -1.33722726	     28.66670712	     -2.25866427	     -1.61176121	     22.78663042	     22.78663042	      2.17064351	    -14.58195309	      2.38755878	     -6.59590877	      2.69034332	      4.60678558	     32.37469183	    -13.64928470	     -5.82326359	    100.60128474	     44.33572641	      0.00000000	      0.00000000	     -4.07965964	     -8.73488528	      2.19912604	     27.88961027	     46.22282998	      0.00000000	      0.00000000
      7.66157143	     -4.80997768	     -3.55753661	      5.74174015	      0.84247714	      0.91633934	      0.45576486	     -1.24174245	      1.24264093	    -15.90625009	     16.62161786	     16.62161786	     20.00934635	     -3.27088692	     -0.95207527	     28.34729686	     -2.11816958	     -1.57963410	     23.20294328	     23.20294328	      2.73114806	    -15.07535753	      2.37425895	     -6.54839251	      2.51336691	      4.51748838	     31.45068281	    -13.53427182	     -4.84776437	     99.46072017	     44.36515197	      0.00000000	      0.00000000	     -3.46908392	     -8.67247712	      1.78449034	     28.37137728	     46.27286826	      0.00000000	      0.00000000
      7.67364286	     -4.80190781	     -3.43037037	      5.46500405	      0.84284153	      0.91715093	      0.45379887	     -0.49797327	      0.60280524	    -15.55752083	     19.03815709	     19.03815709	     19.75549728	     -4.14530574	     -1.34764267	     27.89894441	     -1.99216276	     -1.73767235	     23.46879423	     23.46879423	      3.36448767	    -15.22293454	      2.20463813	     -6.61209187	      2.32764553	      4.58096241	     30.40879188	    -13.46045713	     -4.24049034	     98.36726731	     44.38961106	      0.00000000	      0.00000000	     -2.64987994	     -8.61881988	      1.59083627	     28.75372980	     46.30355813	      0.00000000	      0.00000000
